<svg id="Layer_1" data-name="Layer 1" xmlns="http://www.w3.org/2000/svg" viewBox="0 0 28.87 28.87"><defs><style>.cls-1{fill:#7c5641;}.cls-2{fill:#fff;fill-rule:evenodd;}</style></defs><title>instagram</title><rect class="cls-1" width="28.87" height="28.87" rx="6.48" ry="6.48"/><path class="cls-2" d="M19.33,7.31H9.54A2.23,2.23,0,0,0,7.31,9.54v9.79a2.23,2.23,0,0,0,2.23,2.23h9.79a2.23,2.23,0,0,0,2.23-2.23V9.54A2.23,2.23,0,0,0,19.33,7.31Zm-1.84,2a.39.39,0,0,1,.39-.4H19.6a.4.4,0,0,1,.4.4V11a.39.39,0,0,1-.4.39H17.88a.38.38,0,0,1-.39-.39Zm-5.68,4.13a2.81,2.81,0,0,1,5.25,0,2.7,2.7,0,0,1,.2,1,2.83,2.83,0,0,1-5.65,0A2.7,2.7,0,0,1,11.81,13.41Zm8.24,5.92a.72.72,0,0,1-.72.72H9.54a.72.72,0,0,1-.72-.72V13.41h1.41a4.34,4.34,0,1,0,8.41,0h1.41Z"/></svg>