<svg id="Layer_1" data-name="Layer 1" xmlns="http://www.w3.org/2000/svg" viewBox="0 0 28.87 28.87"><defs><style>.cls-1{fill:#23b6ea;}.cls-2{fill:#fff;}</style></defs><title>vimeo</title><rect class="cls-1" width="28.87" height="28.87" rx="6.48" ry="6.48"/><path class="cls-2" d="M21.85,11c-.13,2.78-5.21,9.84-8.15,9.84-.86,0-1.6-.8-2.19-2.4-1.15-4.19-1.66-6.78-2.63-6.78a4.4,4.4,0,0,0-1.16.7l-.7-.9c1.86-1.63,3.36-3.17,4.35-3.26,1.16-.11,1.87.68,2.13,2.36.34,2.16.84,5.66,1.7,5.66.66,0,2.31-2.71,2.39-3.69.15-1.41-1-1.49-2.09-1C16.23,9.12,17.62,8,19.69,8c1.53,0,2.25,1,2.16,3Z"/></svg>